<?xml version="1.0" encoding="UTF-8" standalone="no"?>
<!-- Uploaded to: SVG Repo, www.svgrepo.com, Generator: SVG Repo Mixer Tools -->

<svg
   fill="#000000"
   width="800px"
   height="800px"
   viewBox="0 0 16 16"
   version="1.1"
   id="svg2"
   sodipodi:docname="pix-svgrepo-com.svg"
   inkscape:version="1.4.3 (0d15f75042, 2025-12-25)"
   xmlns:inkscape="http://www.inkscape.org/namespaces/inkscape"
   xmlns:sodipodi="http://sodipodi.sourceforge.net/DTD/sodipodi-0.dtd"
   xmlns="http://www.w3.org/2000/svg"
   xmlns:svg="http://www.w3.org/2000/svg">
  <defs
     id="defs2" />
  <sodipodi:namedview
     id="namedview2"
     pagecolor="#505050"
     bordercolor="#ffffff"
     borderopacity="1"
     inkscape:showpageshadow="0"
     inkscape:pageopacity="0"
     inkscape:pagecheckerboard="1"
     inkscape:deskcolor="#505050"
     inkscape:zoom="0.98125"
     inkscape:cx="399.49045"
     inkscape:cy="400"
     inkscape:window-width="1920"
     inkscape:window-height="996"
     inkscape:window-x="0"
     inkscape:window-y="0"
     inkscape:window-maximized="1"
     inkscape:current-layer="svg2" />
  <path
     id="path1"
     d="M 8.0024609 1.0005469 A 2.127 2.127 0 0 0 6.4989844 1.6230078 L 3.8389844 4.2830078 L 4.2529687 4.2830078 L 4.2529687 4.2819922 C 4.8029687 4.2819922 5.3189531 4.4959844 5.7069531 4.8839844 L 7.3029297 6.4799609 L 7.3029297 6.2298438 C 7.3029297 6.1898904 7.31563 6.1572215 7.3410547 6.1317969 C 7.3664794 6.1063722 7.3991482 6.0936719 7.4391016 6.0936719 L 8.1691797 6.0936719 C 8.209133 6.0936719 8.2418019 6.1063722 8.2672266 6.1317969 C 8.2926512 6.1572215 8.3053906 6.1898904 8.3053906 6.2298438 L 8.3053906 7.0421875 A 0.39 0.39 0 0 0 8.3669531 6.9919922 L 8.9463281 6.4126172 L 8.855625 6.2734375 C 8.844729 6.2516448 8.8392969 6.2298395 8.8392969 6.2080469 C 8.8392969 6.1789902 8.8501995 6.1535895 8.8719922 6.1317969 C 8.8937849 6.1063722 8.9210216 6.0936719 8.9537109 6.0936719 L 9.2652734 6.0936719 L 10.466953 4.8919922 A 2.044 2.044 0 0 1 11.919961 4.29 L 12.172969 4.29 L 9.5059766 1.6230078 A 2.127 2.127 0 0 0 8.0024609 1.0005469 z M 3.2439844 4.8769922 L 1.6259766 6.4960156 C 0.79597662 7.3260156 0.79597662 8.6729844 1.6259766 9.5039844 L 3.2439844 11.121992 A 0.305 0.305 0 0 1 3.3519531 11.1 L 4.2529687 11.1 C 4.6329687 11.1 5.0029766 10.946984 5.2709766 10.678984 L 7.3029297 8.6451172 L 7.3029297 7.3528906 L 6.5651172 6.6147266 C 6.5733531 6.6260881 6.5813524 6.637634 6.5891797 6.649375 C 6.7163039 6.8346131 6.7798828 7.0688821 6.7798828 7.3521875 C 6.7798828 7.6318608 6.7163039 7.8624956 6.5891797 8.0441016 C 6.4656879 8.2257072 6.2913633 8.3600948 6.0661719 8.4472656 C 5.8446125 8.5344365 5.5831066 8.5780078 5.2816406 8.5780078 L 4.6333203 8.5780078 L 4.6333203 9.7711719 C 4.6333203 9.8111252 4.6187832 9.8438331 4.5897266 9.8692578 C 4.5643019 9.8946825 4.531594 9.9073828 4.4916406 9.9073828 L 3.7561328 9.9073828 C 3.7161795 9.9073828 3.6835106 9.8946825 3.6580859 9.8692578 C 3.6326609 9.8438328 3.6199219 9.8111252 3.6199219 9.7711719 L 3.6199219 6.2298438 C 3.6199219 6.1898904 3.6326613 6.1572215 3.6580859 6.1317969 C 3.6835106 6.1063722 3.7161795 6.0936719 3.7561328 6.0936719 L 5.2816406 6.0936719 C 5.5831066 6.0936719 5.8446125 6.1408774 6.0661719 6.2353125 C 6.1640047 6.2747612 6.2522213 6.3231182 6.3308594 6.3803906 L 5.2709766 5.32 A 1.448 1.448 0 0 0 4.2529687 4.8980078 L 3.3529688 4.8980078 A 0.306 0.306 0 0 1 3.2439844 4.8769922 z M 12.767969 4.8839844 A 0.307 0.307 0 0 1 12.653984 4.9069922 L 11.920977 4.9069922 C 11.541977 4.9069922 11.170984 5.0609844 10.903984 5.3289844 L 9.9670703 6.2658984 L 10.582695 7.1996484 L 11.241953 6.2080469 C 11.25648 6.1862542 11.278284 6.1626512 11.307344 6.1372266 C 11.336404 6.1081699 11.378139 6.0936719 11.432617 6.0936719 L 12.179023 6.0936719 C 12.21171 6.0936719 12.238949 6.1063722 12.260742 6.1317969 C 12.286169 6.1535895 12.298906 6.1789902 12.298906 6.2080469 C 12.298906 6.2334715 12.291636 6.2552768 12.277109 6.2734375 L 11.171133 7.9569141 L 12.369727 9.7275781 C 12.376993 9.7384748 12.380625 9.7493774 12.380625 9.7602734 C 12.384225 9.7711701 12.386016 9.7820727 12.386016 9.7929688 C 12.386016 9.8220261 12.375114 9.8492628 12.35332 9.8746875 C 12.331527 9.8964802 12.304288 9.9073828 12.271602 9.9073828 L 11.459844 9.9073828 C 11.405364 9.9073828 11.361753 9.8946825 11.329063 9.8692578 C 11.300003 9.8402011 11.280034 9.8165591 11.269141 9.7983984 L 10.54457 8.7523828 L 9.9154688 9.6814844 L 10.903984 10.67 C 11.170984 10.938 11.541977 11.091016 11.920977 11.091016 L 12.653984 11.091016 C 12.693984 11.091016 12.732965 11.10102 12.767969 11.115 L 14.379961 9.5030078 C 15.209961 8.6730078 15.209961 7.325 14.379961 6.495 L 14.379961 6.4960156 L 12.767969 4.8839844 z M 4.6169531 6.8509375 L 4.6169531 7.8261719 L 5.254375 7.8261719 C 5.4105562 7.8261719 5.5340798 7.7862348 5.6248828 7.7063281 C 5.7193179 7.6264215 5.7665234 7.5047345 5.7665234 7.3412891 C 5.7665234 7.2032685 5.7265864 7.0870523 5.6466797 6.9926172 C 5.566773 6.8981821 5.435981 6.8509375 5.254375 6.8509375 L 4.6169531 6.8509375 z M 9.2911719 6.9417969 L 8.8039844 7.4289844 A 1.005 1.005 0 0 1 8.3053906 7.7021875 L 8.3053906 8.3073047 A 1.034 1.034 0 0 1 8.8039844 8.57 L 9.2483594 9.014375 L 9.9561719 7.9623828 L 9.2911719 6.9417969 z M 8.3053906 8.960625 L 8.3053906 9.7711719 C 8.3053906 9.8111252 8.2926512 9.8438331 8.2672266 9.8692578 C 8.2418019 9.8946825 8.209133 9.9073828 8.1691797 9.9073828 L 7.4391016 9.9073828 C 7.3991482 9.9073828 7.3664794 9.8946825 7.3410547 9.8692578 C 7.31563 9.8438331 7.3029297 9.8111252 7.3029297 9.7711719 L 7.3029297 9.5200391 L 5.7069531 11.116016 A 2.044 2.044 0 0 1 4.2529687 11.718008 L 3.8389844 11.718008 L 6.4989844 14.378008 C 7.3289844 15.208008 8.6759766 15.208008 9.5059766 14.378008 L 12.172969 11.71 L 11.919961 11.71 A 2.046 2.046 0 0 1 10.465977 11.108008 L 9.2653516 9.9073828 L 8.8665234 9.9073828 C 8.8338341 9.9073828 8.8047997 9.8964802 8.779375 9.8746875 C 8.7575823 9.8492628 8.7466797 9.8220261 8.7466797 9.7929688 C 8.7466797 9.7820721 8.748476 9.7711694 8.7521094 9.7602734 C 8.7557427 9.7493774 8.7612132 9.7384748 8.7684766 9.7275781 L 8.8960156 9.5380469 L 8.3659766 9.0080078 A 0.4 0.4 0 0 0 8.3053906 8.960625 z " />
</svg>
